<svg id="XDAO_white" xmlns="http://www.w3.org/2000/svg" width="1354.623" height="389" viewBox="0 0 1354.623 389">
  <g id="Group_2585" data-name="Group 2585" transform="translate(0 31.648)">
    <path id="Path_73" data-name="Path 73" d="M176.053,202.828l-29.229,16.888L84.03,183.468,112.546,167l.712-.419,1.09.628Z" transform="translate(-5.397 106.89)" fill="#fff"/>
    <path id="Path_74" data-name="Path 74" d="M329.357,117.711V151.7l-61.81-35.682-16.762-9.68-16.762,9.68-78.571,45.362-16.762,9.68v20.01l-30.234-17.453-16.762-9.68-16.762,9.68L46.5,190.018V117.711L187.929,36.06Z" transform="translate(-46.5 -36.06)" fill="#fff"/>
    <path id="Path_75" data-name="Path 75" d="M263.643,133.453v90.724l-78.571,45.362-.1-.063-78.467-45.3V133.453L185.071,88.07Z" transform="translate(19.216 20.904)" fill="#fff"/>
    <path id="Path_76" data-name="Path 76" d="M136.889,141.656v52.171L91.694,219.934,46.5,193.827V141.656L91.694,115.57Z" transform="translate(-46.5 51.022)" fill="#fff"/>
  </g>
  <text id="XDAO" transform="translate(362.623 309)" fill="#fff" font-size="319" font-family="Montserrat-Bold, Montserrat" font-weight="700"><tspan x="0" y="0">XDAO</tspan></text>
</svg>
