<?xml version="1.0" encoding="UTF-8" standalone="no"?>
<svg
   xmlns:dc="http://purl.org/dc/elements/1.1/"
   xmlns:cc="http://creativecommons.org/ns#"
   xmlns:rdf="http://www.w3.org/1999/02/22-rdf-syntax-ns#"
   xmlns:svg="http://www.w3.org/2000/svg"
   xmlns="http://www.w3.org/2000/svg"
   width="1775"
   height="500"
   viewBox="0 0 469.63518 132.29165"
   version="1.1"
   id="svg5344">
  <title
     id="title2444">Flux Logo - White text</title>
  <defs
     id="defs5338" />
  <metadata
     id="metadata5341">
    <rdf:RDF>
      <cc:Work
         rdf:about="">
        <dc:format>image/svg+xml</dc:format>
        <dc:type
           rdf:resource="http://purl.org/dc/dcmitype/StillImage" />
        <dc:title>Flux Logo - White text</dc:title>
      </cc:Work>
    </rdf:RDF>
  </metadata>
  <g
     id="layer1"
     transform="translate(-89.140512,-81.700891)">
    <g
       aria-label="Flux"
       transform="matrix(0.78234976,0,0,0.78234976,80.026233,31.39189)"
       style="font-style:normal;font-variant:normal;font-weight:500;font-stretch:normal;font-size:191.99935913px;line-height:1.25;font-family:Heebo;-inkscape-font-specification:'Heebo, Medium';font-variant-ligatures:normal;font-variant-caps:normal;font-variant-numeric:normal;font-feature-settings:normal;text-align:center;letter-spacing:0px;word-spacing:0px;writing-mode:lr-tb;text-anchor:middle;fill:#515151;fill-opacity:1;stroke:none;stroke-width:0;stroke-miterlimit:4;stroke-dasharray:none;stroke-opacity:1"
       id="flowRoot817-4-3-0-6-1-9-2-1-2-0-7-2-3-3-1-5-9-9-8-1-9-5-3-3">
      <g
         id="g6261">
        <path
           d="M 58.264757,100.28963 34.442651,112.15108 12.25928,97.451256 13.898016,70.889982 37.720122,59.028531 59.903493,73.728355 Z"
           id="path815-9-7-0-6-8-0-4-5-7-9-7-5-3-2-7-2-1-56-7-5-5-2-6-0"
           style="opacity:1;fill:#ffffff;fill-opacity:1;fill-rule:nonzero;stroke:#3f3f3f;stroke-width:0;stroke-linecap:round;stroke-linejoin:round;stroke-miterlimit:4;stroke-dasharray:none;stroke-dashoffset:0;stroke-opacity:1;paint-order:normal"
           transform="matrix(0.82681671,-0.05162299,0.05162299,0.82681671,13.873457,103.14132)" />
        <path
           d="M 58.264757,100.28963 34.442651,112.15108 12.25928,97.451256 13.898016,70.889982 37.720122,59.028531 59.903493,73.728355 Z"
           id="path815-9-7-0-6-8-1-2-5-4-6-3-2-3-3-8-61-7-1-0-2"
           style="opacity:1;fill:#aee9db;fill-opacity:1;fill-rule:nonzero;stroke:#3f3f3f;stroke-width:0;stroke-linecap:round;stroke-linejoin:round;stroke-miterlimit:4;stroke-dasharray:none;stroke-dashoffset:0;stroke-opacity:1;paint-order:normal"
           transform="matrix(1.4498651,-0.0905234,0.0905234,1.4498651,53.265623,42.925465)" />
        <path
           id="path2554"
           style="font-style:normal;font-variant:normal;font-weight:normal;font-stretch:normal;font-size:191.99412537px;font-family:'White Rabbit';-inkscape-font-specification:'White Rabbit, Normal';font-variant-ligatures:normal;font-variant-caps:normal;font-variant-numeric:normal;font-feature-settings:normal;text-align:center;writing-mode:lr-tb;text-anchor:middle;fill:#36c9a5;fill-opacity:1;stroke:none;stroke-width:0;stroke-miterlimit:4;stroke-dasharray:none;stroke-opacity:1"
           d="m 249.88269,158.59179 h -45.71288 v 36.57031 q 0,12.7996 -2.74278,15.54238 -2.74277,2.74277 -6.3998,2.74277 -3.65703,0 -6.3998,-2.74277 -2.74278,-2.74278 -2.74278,-6.39981 V 94.593744 q 0,-3.657031 2.74278,-6.399804 2.74277,-2.742773 6.3998,-2.742773 h 73.14062 q 3.65703,0 6.3998,2.742773 2.74278,2.742773 2.74278,6.399804 0,3.657031 -2.74278,6.399806 -2.74277,2.74277 -6.3998,2.74277 h -63.99804 v 36.57031 h 45.71288 q 3.65704,0 6.39981,2.74277 2.74277,2.74278 2.74277,6.39981 0,3.65703 -2.74277,6.3998 -2.74277,2.74278 -6.39981,2.74278 z" />
        <path
           id="path2556"
           style="font-style:normal;font-variant:normal;font-weight:normal;font-stretch:normal;font-size:191.99412537px;font-family:'White Rabbit';-inkscape-font-specification:'White Rabbit, Normal';font-variant-ligatures:normal;font-variant-caps:normal;font-variant-numeric:normal;font-feature-settings:normal;text-align:center;writing-mode:lr-tb;text-anchor:middle;fill:#36c9a5;fill-opacity:1;stroke:none;stroke-width:0;stroke-miterlimit:4;stroke-dasharray:none;stroke-opacity:1"
           d="m 323.18402,213.44725 q -3.65703,0 -6.3998,-2.74277 -2.74278,-2.74278 -2.74278,-6.39981 0,-3.65703 2.74278,-6.3998 2.74277,-2.74277 6.3998,-2.74277 h 9.14258 v -91.42578 h -9.14258 q -3.65703,0 -6.3998,-2.74277 -2.74278,-2.742775 -2.74278,-6.399806 0,-3.657031 2.74278,-6.399804 2.74277,-2.742773 6.3998,-2.742773 h 18.28516 q 3.65703,0 6.3998,2.742773 2.74277,2.742773 2.74277,6.399804 V 195.1621 h 9.14258 q 3.65703,0 6.3998,2.74277 2.74278,2.74277 2.74278,6.3998 0,3.65703 -2.74278,6.39981 -2.74277,2.74277 -6.3998,2.74277 z" />
        <path
           id="path2558"
           style="font-style:normal;font-variant:normal;font-weight:normal;font-stretch:normal;font-size:191.99412537px;font-family:'White Rabbit';-inkscape-font-specification:'White Rabbit, Normal';font-variant-ligatures:normal;font-variant-caps:normal;font-variant-numeric:normal;font-feature-settings:normal;text-align:center;writing-mode:lr-tb;text-anchor:middle;fill:#36c9a5;fill-opacity:1;stroke:none;stroke-width:0;stroke-miterlimit:4;stroke-dasharray:none;stroke-opacity:1"
           d="m 478.76854,195.1621 v -63.99805 q 0,-3.65703 2.74278,-6.3998 2.74277,-2.74277 6.3998,-2.74277 3.65703,0 6.3998,2.74277 2.74278,2.74277 2.74278,6.3998 v 73.14062 q 0,3.65703 -2.74278,6.39981 -2.74277,2.74277 -6.3998,2.74277 h -54.85546 q -10.9711,0 -19.19942,-8.22832 -8.22832,-8.22832 -8.22832,-19.19941 v -54.85547 q 0,-3.65703 2.74278,-6.3998 2.74277,-2.74277 6.3998,-2.74277 3.65703,0 6.39981,2.74277 2.74277,2.74277 2.74277,6.3998 v 54.85547 q 0,3.65703 2.74277,6.3998 2.74277,2.74278 6.39981,2.74278 z" />
        <path
           id="path2560"
           style="font-style:normal;font-variant:normal;font-weight:normal;font-stretch:normal;font-size:191.99412537px;font-family:'White Rabbit';-inkscape-font-specification:'White Rabbit, Normal';font-variant-ligatures:normal;font-variant-caps:normal;font-variant-numeric:normal;font-feature-settings:normal;text-align:center;writing-mode:lr-tb;text-anchor:middle;fill:#36c9a5;fill-opacity:1;stroke:none;stroke-width:0;stroke-miterlimit:4;stroke-dasharray:none;stroke-opacity:1"
           d="m 561.21244,180.16827 -30.17051,30.53621 q -2.74277,2.74277 -6.3998,2.74277 -3.65703,0 -6.39981,-2.74277 -2.74277,-2.74278 -2.74277,-6.39981 0,-3.65703 2.74277,-6.3998 l 29.80481,-30.17051 -29.80481,-30.1705 q -2.74277,-2.74278 -2.74277,-6.39981 0,-3.65703 2.74277,-6.3998 2.74278,-2.74277 6.39981,-2.74277 3.65703,0 6.3998,2.74277 l 30.17051,29.8048 30.1705,-29.8048 q 2.74278,-2.74277 6.39981,-2.74277 3.65703,0 6.3998,2.74277 2.74278,2.74277 2.74278,6.3998 0,3.65703 -2.74278,6.39981 l -30.53621,30.1705 30.53621,30.17051 q 2.74278,2.74277 2.74278,6.3998 0,3.65703 -2.74278,6.39981 -2.74277,2.74277 -6.3998,2.74277 -3.65703,0 -6.39981,-2.74277 z" />
        <path
           id="path5417"
           d="m 61.019649,201.51371 12.546266,-7.24694 26.919355,15.52053 -12.531163,7.25449 z"
           style="fill:#36c9a5;stroke:none;stroke-width:0;stroke-linecap:butt;stroke-linejoin:miter;stroke-opacity:1;stroke-miterlimit:4;stroke-dasharray:none;fill-opacity:1" />
        <path
           id="path5419"
           d="m 29.042532,146.24071 15.490332,-8.9077 c 0,0 3.442295,-2.21937 6.884594,-0.21137 3.714055,2.0835 15.596016,9.04358 15.596016,9.04358 l -0.0088,-4.16813 c 0,0 -0.487419,-4.87479 3.738811,-7.09265 4.325517,-2.37035 38.619335,-22.3318 38.619335,-22.3318 0,0 3.89327,-2.69626 7.5338,-0.22647 4.04621,2.49113 29.87853,17.24167 29.87853,17.24167 L 146.7298,115.04867 87.878616,81.169232 29.087825,115.16946 Z"
           style="fill:#36c9a5;stroke:#000000;stroke-width:0;stroke-linecap:butt;stroke-linejoin:miter;stroke-miterlimit:4;stroke-dasharray:none;stroke-opacity:1;fill-opacity:1" />
      </g>
    </g>
  </g>
</svg>
