<svg id="Flux_symbol-mark_blue" xmlns="http://www.w3.org/2000/svg" width="279.714" height="322.975" viewBox="0 0 279.714 322.975">
  <path id="Path_73" data-name="Path 73" d="M175.03,202.425l-28.9,16.7L84.03,183.28l28.2-16.285.7-.414,1.077.622Z" transform="translate(-6.271 103.85)" fill="#2b61d1"/>
  <path id="Path_74" data-name="Path 74" d="M326.213,116.8v33.607L265.09,115.125l-16.576-9.572-16.576,9.572-77.7,44.858-16.576,9.572v19.787l-29.9-17.259-16.576-9.572-16.576,9.572L46.5,188.307V116.8L186.356,36.06Z" transform="translate(-46.5 -36.06)" fill="#2b61d1"/>
  <path id="Path_75" data-name="Path 75" d="M261.9,132.948v89.715l-77.7,44.858-.1-.062-77.594-44.8V132.948L184.2,88.07Z" transform="translate(17.819 19.693)" fill="#2b61d1"/>
  <path id="Path_76" data-name="Path 76" d="M135.884,141.366v51.591L91.192,218.774,46.5,192.957V141.366l44.692-25.8Z" transform="translate(-46.5 49.17)" fill="#2b61d1"/>
</svg>
