<svg id="Flux_blue_substract" xmlns="http://www.w3.org/2000/svg" width="1079.698" height="335.218" viewBox="0 0 1079.698 335.218">
  <path id="Subtraction_110" data-name="Subtraction 110" d="M168.786,335.218a171.182,171.182,0,0,1-34.016-3.405A168.557,168.557,0,0,1,13.264,232.85a165.914,165.914,0,0,1-9.835-31.462,168.087,168.087,0,0,1,0-67.558A166.074,166.074,0,0,1,28.826,73.9,168.814,168.814,0,0,1,134.77,3.405a171.605,171.605,0,0,1,68.033,0,168.556,168.556,0,0,1,121.506,98.963,165.917,165.917,0,0,1,9.835,31.462,168.087,168.087,0,0,1,0,67.558,166.073,166.073,0,0,1-25.4,59.933A168.813,168.813,0,0,1,202.8,331.812,171.185,171.185,0,0,1,168.786,335.218Zm-21.3-94.119-.468.275L128.264,252.2l41.3,23.834,19.225-11.1L148.2,241.511Zm63.424-108.159-51.681,29.84v59.652l51.612,29.785.068.041,51.681-29.826V162.779ZM106.269,170.824,76.542,187.976v34.3l29.727,17.166L136,222.279v-34.3Zm0-25.459h0l11.024,6.365,19.886,11.476V150.049l11.025-6.365,51.681-29.826,11.025-6.365,11.025,6.365,40.656,23.461V114.974L169.567,61.286,76.542,114.974v47.542l18.7-10.787,11.025-6.365Z" transform="translate(0 0)" fill="#2b61d1"/>
  <g id="Group_178" data-name="Group 178" transform="translate(415.204 61.306)">
    <path id="Path_77" data-name="Path 77" d="M326.421,86.14v57.554h105.2v40.433h-105.2v79.347h-52.6V45.69H445.57V86.14Z" transform="translate(-273.82 -45.69)" fill="#2b61d1"/>
    <path id="Path_78" data-name="Path 78" d="M393.41,45.69h50.64V263.475H393.41Z" transform="translate(-198.608 -45.69)" fill="#2b61d1"/>
    <path id="Path_79" data-name="Path 79" d="M627.1,76.54v174.7H579.052v-20.8c-13.316,15.26-32.788,23.376-54.221,23.376-43.837,0-74.682-24.672-74.682-78.569V76.54h50.657v91.238c0,29.225,12.976,42.217,35.38,42.217,23.376,0,40.256-14.936,40.256-47.094V76.54Z" transform="translate(-166.21 -33.455)" fill="#2b61d1"/>
    <path id="Path_80" data-name="Path 80" d="M701.721,251.24l-38.313-53.59-39.557,53.59H568.59l67.2-88.015L570.875,76.54h56.812l37.085,50.981L702.761,76.54h53.9l-64.946,85.389,67.469,89.311Z" transform="translate(-94.687 -33.455)" fill="#2b61d1"/>
  </g>
</svg>
