<svg id="Flux_white_black__foundation" data-name="Flux_white_black_ foundation" xmlns="http://www.w3.org/2000/svg" width="1080.361" height="335.661" viewBox="0 0 1080.361 335.661">
  <g id="Group_196" data-name="Group 196" transform="translate(0 0)">
    <ellipse id="Ellipse_64" data-name="Ellipse 64" cx="168.632" cy="167.831" rx="168.632" ry="167.831" transform="translate(0 0)" fill="#fff"/>
    <g id="Group_179" data-name="Group 179" transform="translate(76.341 61.731)">
      <path id="Path_73" data-name="Path 73" d="M144.555,190.421l-19.224,11.107-41.3-23.841,18.756-10.832.469-.276.717.413Z" transform="translate(-32.311 13.286)"/>
      <path id="Path_74" data-name="Path 74" d="M232.54,89.764v22.352L191.887,88.647l-11.025-6.367-11.025,6.367L118.16,118.483l-11.025,6.367V138.01L87.25,126.531l-11.025-6.367L65.2,126.531l-18.7,10.79V89.764l93.02-53.7Z" transform="translate(-46.5 -36.06)"/>
      <path id="Path_75" data-name="Path 75" d="M209.856,117.919V177.59l-51.678,29.835-.069-.041L106.5,177.59V117.919L158.178,88.07Z" transform="translate(-23.815 -16.396)"/>
      <path id="Path_76" data-name="Path 76" d="M105.95,132.727v34.314L76.225,184.212,46.5,167.041V132.727L76.225,115.57Z" transform="translate(-46.5 -5.999)"/>
    </g>
    <g id="Group_178" data-name="Group 178" transform="translate(415.037 61.731)">
      <path id="Path_77" data-name="Path 77" d="M326.421,86.14v57.554h105.2v40.433h-105.2v79.347h-52.6V45.69H445.57V86.14Z" transform="translate(-273.82 -45.69)" fill="#fff"/>
      <path id="Path_78" data-name="Path 78" d="M393.41,45.69h50.64V263.475H393.41Z" transform="translate(-198.608 -45.69)" fill="#fff"/>
      <path id="Path_79" data-name="Path 79" d="M627.1,76.54v174.7H579.052v-20.8c-13.316,15.26-32.788,23.376-54.221,23.376-43.837,0-74.682-24.672-74.682-78.569V76.54h50.657v91.238c0,29.225,12.976,42.217,35.38,42.217,23.376,0,40.256-14.936,40.256-47.094V76.54Z" transform="translate(-166.21 -33.455)" fill="#fff"/>
      <path id="Path_80" data-name="Path 80" d="M701.721,251.24l-38.313-53.59-39.557,53.59H568.59l67.2-88.015L570.875,76.54h56.812l37.085,50.981L702.761,76.54h53.9l-64.946,85.389,67.469,89.311Z" transform="translate(-94.687 -33.455)" fill="#fff"/>
    </g>
  </g>
  <text id="foundation" transform="translate(699.361 88.237)" fill="#fff" font-size="66.6" font-family="Montserrat-SemiBold, Montserrat" font-weight="600"><tspan x="0" y="0">foundation</tspan></text>
</svg>
