<svg id="Flux_symbol_white-black" xmlns="http://www.w3.org/2000/svg" width="337.555" height="335.319" viewBox="0 0 337.555 335.319">
  <path id="Path_81" data-name="Path 81" d="M168.777,0c93.213,0,168.777,75.064,168.777,167.66s-75.564,167.66-168.777,167.66S0,260.256,0,167.66,75.564,0,168.777,0Z" transform="translate(0 0)"/>
  <g id="Group_179" data-name="Group 179" transform="translate(76.538 61.305)">
    <path id="Path_73" data-name="Path 73" d="M144.555,190.421l-19.224,11.107-41.3-23.841,18.756-10.832.469-.276.717.413Z" transform="translate(-32.311 13.286)" fill="#fff"/>
    <path id="Path_74" data-name="Path 74" d="M232.54,89.764v22.352L191.887,88.647l-11.025-6.367-11.025,6.367L118.16,118.483l-11.025,6.367V138.01L87.25,126.531l-11.025-6.367L65.2,126.531l-18.7,10.79V89.764l93.02-53.7Z" transform="translate(-46.5 -36.06)" fill="#fff"/>
    <path id="Path_75" data-name="Path 75" d="M209.856,117.919V177.59l-51.678,29.835-.069-.041L106.5,177.59V117.919L158.178,88.07Z" transform="translate(-23.815 -16.396)" fill="#fff"/>
    <path id="Path_76" data-name="Path 76" d="M105.95,132.727v34.314L76.225,184.212,46.5,167.041V132.727L76.225,115.57Z" transform="translate(-46.5 -5.999)" fill="#fff"/>
  </g>
</svg>
